# xmcd
#
# Track frame offsets:
#	150
#	14764
#	27139
#	42854
#	55424
#	69137
#	81866
#	94818
#	109283
#	124493
#	137663
#	149828
#	162906
#	176896
#	190240
#	203302
#	217107
#	230342
#	243365
#	255966
#	268964
#	282518
#	296263
#	309654
#	321693
#
# Disc length: 4501 seconds
#
# Revision: 0
# Processed by: cddbd v1.5.2PL0 Copyright (c) Steve Scherf et al.
# Submitted via: EasyCDDAExtractor 10.0.2.1
#
DISCID=85119319
DTITLE=Dallape - Levytyksiä vuosilta 1930 - 1933
DYEAR=2006
DGENRE=Oldies
TTITLE0=Amanda Haaparannassa
TTITLE1=Kulkurien kuningas
TTITLE2=Vaalea Inga
TTITLE3=Laulu tulipunaisesta ruususta
TTITLE4=Rajamäen farssi
TTITLE5=Petsamo
TTITLE6=Naurupolkka
TTITLE7=Syysorvokki
TTITLE8=Mä muistan sua
TTITLE9=Imatra
TTITLE10=Muistojen tie
TTITLE11=Kultahiekkaa
TTITLE12=Laulu yölle
TTITLE13=Iloiset meripojat
TTITLE14=Aropaimen
TTITLE15=Aavikon lapsia
TTITLE16=Hetket nuoruuden
TTITLE17=Koivu ja tähti
TTITLE18=Heinäpolkka
TTITLE19=Go, Go
TTITLE20=Onnen lapsi
TTITLE21=Korvenpoika
TTITLE22=Leila
TTITLE23=Kolme hauskaa veikkoa
TTITLE24=Helge Pahlmanin haastattelu
EXTD=
EXTT0=
EXTT1=
EXTT2=
EXTT3=
EXTT4=
EXTT5=
EXTT6=
EXTT7=
EXTT8=
EXTT9=
EXTT10=
EXTT11=
EXTT12=
EXTT13=
EXTT14=
EXTT15=
EXTT16=
EXTT17=
EXTT18=
EXTT19=
EXTT20=
EXTT21=
EXTT22=
EXTT23=
EXTT24=
PLAYORDER=
